<?xml version="1.0" standalone="no"?>
<!DOCTYPE svg PUBLIC "-//W3C//DTD SVG 20010904//EN"
 "http://www.w3.org/TR/2001/REC-SVG-20010904/DTD/svg10.dtd">
<svg version="1.0" xmlns="http://www.w3.org/2000/svg"
 width="512.000000pt" height="512.000000pt" viewBox="0 0 512.000000 512.000000"
 preserveAspectRatio="xMidYMid meet">
<metadata>
Created by potrace 1.11, written by Peter Selinger 2001-2013
</metadata>
<g transform="translate(0.000000,512.000000) scale(0.100000,-0.100000)"
fill="#000000" stroke="none">
<path d="M869 4766 c-2 -2 -22 -7 -44 -10 -22 -4 -49 -9 -60 -10 -33 -7 -119
-37 -130 -47 -5 -5 -15 -9 -23 -9 -26 0 -148 -88 -197 -142 -68 -76 -70 -79
-99 -134 -87 -170 -113 -374 -72 -563 35 -158 146 -327 273 -414 47 -33 51
-32 115 28 24 22 83 76 133 120 49 44 100 91 112 104 23 23 23 41 0 41 -20 1
-84 66 -112 114 -76 130 -68 272 21 374 39 44 93 80 134 89 157 35 282 -26
354 -172 54 -111 55 -130 56 -785 1 -333 3 -622 5 -643 18 -198 95 -388 210
-518 93 -105 240 -188 383 -217 47 -9 291 -9 358 0 144 21 278 89 381 195 l52
53 19 -42 c39 -88 168 -184 272 -203 19 -3 44 -8 55 -10 11 -2 25 -4 31 -4 5
-1 25 -29 43 -63 34 -64 103 -166 137 -203 30 -33 116 -105 125 -105 6 0 130
100 149 120 6 6 142 126 183 160 34 29 34 32 0 52 -38 22 -110 94 -139 138
-45 68 -63 134 -59 219 12 281 314 450 567 319 74 -39 162 -156 191 -257 8
-24 12 -273 14 -731 3 -656 2 -698 -16 -744 -21 -57 -70 -111 -121 -133 -69
-31 -192 -22 -272 20 -35 18 -128 88 -128 95 0 4 -9 13 -19 19 -18 12 -19 5
-19 -215 0 -125 2 -236 4 -247 6 -26 54 -57 130 -83 92 -32 109 -34 239 -37
90 -2 138 2 192 16 261 66 432 250 482 519 12 63 9 1518 -3 1588 -11 68 -61
207 -97 270 -44 79 -111 163 -160 203 -23 19 -46 39 -53 45 -23 22 -152 93
-181 100 -16 4 -41 12 -55 19 -14 7 -42 16 -62 19 -21 3 -57 10 -80 15 -61 14
-251 11 -338 -4 -235 -43 -435 -166 -558 -344 l-37 -53 -3 1026 -2 1026 -240
0 -240 0 -1 -945 c-1 -520 -2 -948 -3 -952 -1 -5 -6 -28 -10 -53 -14 -76 -75
-179 -148 -252 -103 -102 -215 -148 -343 -141 -92 4 -92 4 -156 35 -72 36
-111 76 -147 151 -52 110 -50 80 -52 842 -2 565 -3 628 -21 710 -70 336 -279
559 -585 624 -75 16 -323 28 -335 17z"/>
</g>
</svg>
